<svg width="63" height="38" viewBox="0 0 63 38" fill="none" xmlns="http://www.w3.org/2000/svg">
<path d="M35.639 0.223011C39.5843 -0.312391 43.6383 0.117022 47.7298 1.50289C51.8539 2.89978 55.6348 5.84243 58.0303 8.56593C60.4574 11.3253 62.7 16.4212 62.7 21.4221C62.7 26.3774 61.1759 32.724 55.2425 36.2107C52.2628 37.9617 48.8534 38.2243 45.9405 37.8547C43.0398 37.4867 40.5526 36.4814 39.3945 35.603C37.3397 34.0445 36.6646 33.1703 34.8651 31.105L34.4894 30.6755C31.8601 27.6815 28.6219 26.5505 27.6623 26.2555L27.5767 26.2295C25.1143 25.4931 21.4427 24.6556 15.833 25.7277C9.95779 26.8506 5.42021 24.2623 4.93268 23.9866C4.48697 23.7345 0.000362356 21.6951 2.20411e-08 15.9094C-0.000346364 10.1646 4.08204 5.94205 9.47933 4.58863C12.182 3.91092 15.0769 4.15735 17.7799 4.33293C20.5241 4.51119 23.0606 4.61529 25.2236 3.76726C29.7101 2.0082 31.6971 0.75794 35.639 0.223011ZM47.4285 2.39795C43.4625 1.05462 39.5548 0.644964 35.7652 1.15923C31.9722 1.67397 30.1832 2.83708 25.5663 4.64722C23.1776 5.58377 20.4295 5.45173 17.719 5.27566C14.9673 5.09691 12.2373 4.87079 9.70778 5.50508C4.64074 6.77568 0.941475 10.6838 0.94179 15.9093C0.942106 21.0937 4.91252 22.8907 5.39511 23.1635C5.83591 23.4128 10.1226 25.8573 15.6567 24.7997C21.4565 23.6912 25.2863 24.5586 27.8458 25.3242L27.9377 25.3521C28.9664 25.6682 32.3991 26.866 35.1961 30.0509L35.5752 30.4844C37.3869 32.563 37.9952 33.3573 39.9626 34.8495C40.9497 35.5981 43.2637 36.5629 46.0587 36.9175C48.8415 37.2705 52.0225 37.0081 54.7665 35.3956C60.2803 32.1554 61.7582 26.2291 61.7582 21.4221C61.7582 16.6609 59.6058 11.785 57.3242 9.19091C55.011 6.56095 51.362 3.73029 47.4285 2.39795Z" fill="url(#paint0_linear_2294_300)"/>
<path d="M17.2528 9.74062C19.2177 9.69704 21.1892 9.6533 23.1372 9.858C26.5491 10.2165 28.3007 13.0559 29.8985 15.6462C29.9618 15.7489 30.0249 15.8512 30.0879 15.9529C30.2339 16.1889 30.3807 16.4293 30.529 16.6723C31.7723 18.7088 33.1277 20.9291 35.0791 22.2541C35.7433 22.7049 36.8714 23.4526 37.7094 23.4526C38.2158 23.4512 38.6872 23.444 39.1685 23.2627C39.6469 23.0823 40.0866 22.7891 40.506 22.5095C40.5667 22.4691 40.6269 22.429 40.6868 22.3895C41.538 21.8279 42.3199 21.1616 43.053 20.4541C45.225 18.3591 47.0154 15.8725 48.5785 13.2992C49.0721 12.4857 49.5436 11.6579 49.9942 10.8197C50.2186 10.4016 50.6508 10.1488 51.1241 10.1488H52.8829C53.5938 10.1488 54.1706 10.7265 54.1706 11.4392V35.7288C53.4391 36.1185 52.9159 36.2927 52.1998 36.5027V13.3646C52.1998 13.245 52.2009 13.1252 52.2021 13.0055C52.2043 12.7715 52.2066 12.5375 52.2003 12.3039C52.198 12.222 52.1894 12.1159 52.1119 12.0685C52.0614 12.0382 52.0052 12.0169 51.9476 12.0056C51.7464 11.9658 51.4454 12.0013 51.2659 12.1088C51.0765 12.222 50.9283 12.4147 50.7865 12.5991L50.7795 12.6082C50.7291 12.6736 50.6795 12.7379 50.6291 12.7968C49.7751 13.796 48.9583 14.8269 48.1557 15.8682C47.0792 17.2657 46.0285 18.683 44.985 20.1051C43.5806 22.0173 42.1899 23.9394 40.8006 25.8625C40.7893 25.8779 40.7779 25.8932 40.7666 25.9084L40.747 25.9349C40.7422 25.9414 40.7375 25.9479 40.7327 25.9544C40.3028 26.5259 39.837 27.0823 39.3306 27.5871C38.7751 28.1412 37.9989 28.5494 37.2393 28.029C36.9891 27.8572 36.775 27.6188 36.5724 27.3931L36.5468 27.3646C36.1482 26.9204 35.773 26.4483 35.4282 25.961C34.7846 25.0516 34.1456 24.1389 33.5068 23.2266L33.5031 23.2214C33.4988 23.2152 33.4945 23.2091 33.4902 23.2029C33.487 23.1983 33.4837 23.1937 33.4805 23.1891L33.4789 23.1868C33.2859 22.9112 33.0926 22.6351 32.8996 22.3597C31.7781 20.76 30.6538 19.1608 29.453 17.6199C29.1415 17.2203 28.8371 16.8119 28.532 16.4025C27.6991 15.2849 26.8608 14.1602 25.8595 13.1866C23.6814 11.0665 20.8343 10.2994 17.8592 10.3278C16.0131 10.3453 14.4207 10.394 12.7012 10.8685C11.3101 11.2521 9.91697 11.8479 8.83945 12.8333C7.86116 13.7279 7.2414 14.9416 7.2414 16.2831C7.2414 19.1462 9.42621 20.2614 15.554 21.4509C19.4284 22.2054 21.9347 23.151 23.5417 24.2218C23.6217 24.275 23.6995 24.3286 23.775 24.3825C23.8091 24.4068 23.8427 24.4312 23.8759 24.4556C23.9017 24.4746 23.9273 24.4936 23.9527 24.5127C23.9768 24.5309 24.0006 24.5492 24.0243 24.5674C24.0373 24.5774 24.0502 24.5874 24.063 24.5974L24.064 24.5982C24.0838 24.6136 24.1034 24.6291 24.1228 24.6446C24.1587 24.6733 24.194 24.7022 24.2288 24.731C24.2384 24.739 24.248 24.747 24.2576 24.755C24.2808 24.7745 24.3038 24.794 24.3266 24.8135C24.3248 24.812 24.323 24.8105 24.3211 24.8089C24.4012 24.8775 24.4781 24.9465 24.5521 25.0159C24.5633 25.0264 24.5745 25.0368 24.5855 25.0474C24.6072 25.068 24.6285 25.0887 24.6497 25.1094C24.6657 25.125 24.6815 25.1407 24.6972 25.1564C24.713 25.1722 24.7287 25.1878 24.7441 25.2036C25.598 26.0753 26.0062 27.0086 26.1791 27.9746C26.2076 28.1342 26.2298 28.2946 26.2464 28.4558C26.2765 28.746 26.289 29.0387 26.289 29.3331C26.289 33.1627 22.7262 36.4713 15.0316 36.4713C7.3001 36.4713 4.12991 33.1907 3.22755 29.9204C3.12362 29.5434 3.47648 29.1844 3.96925 29.1844H5.13698C5.48135 29.1845 5.77281 29.3715 5.86448 29.6319C6.98255 32.8179 9.90428 36.0348 15.1265 36.0348C21.2061 36.0347 23.5345 32.307 23.5345 29.4818C23.5345 29.2692 23.5274 29.0543 23.5115 28.8381C23.4886 28.5264 23.4472 28.212 23.3823 27.8975C23.1932 26.9812 22.8037 26.0645 22.084 25.2141C21.8614 24.9512 21.6073 24.6946 21.3178 24.4464C21.2764 24.4109 21.2343 24.3756 21.1915 24.3405C21.1306 24.2906 21.0684 24.241 21.0045 24.1918C20.5578 23.8475 20.0368 23.5214 19.4307 23.2191C18.9566 22.9827 18.4304 22.7608 17.8469 22.5562C16.9852 22.254 15.9984 21.9895 14.8695 21.7715C14.2073 21.6419 13.5776 21.5224 12.9803 21.409C7.23702 20.3184 4.48593 19.7959 4.48593 16.3948C4.48594 12.9739 7.66939 9.77701 14.7939 9.77701C15.6109 9.77701 16.4313 9.75884 17.2528 9.74062Z" fill="white"/>
<defs>
<linearGradient id="paint0_linear_2294_300" x1="30.4674" y1="-1.32324" x2="30.4674" y2="37.7361" gradientUnits="userSpaceOnUse">
<stop stop-color="#784AD4"/>
<stop offset="0.5" stop-color="#45A6E4"/>
<stop offset="1" stop-color="#784AD4"/>
</linearGradient>
</defs>
</svg>
