<svg width="132" height="80" viewBox="0 0 132 80" fill="none" xmlns="http://www.w3.org/2000/svg">
<path d="M75.0294 0.469496C83.3353 -0.657666 91.8701 0.246362 100.484 3.16398C109.166 6.10479 117.126 12.2999 122.169 18.0335C127.279 23.8428 132 34.571 132 45.0992C132 55.5313 128.791 68.8926 116.3 76.2331C110.027 79.9194 102.849 80.4722 96.7168 79.6942C90.61 78.9195 85.3739 76.8029 82.9358 74.9537C78.6099 71.6727 77.1886 69.8322 73.4002 65.4842L72.6093 64.58C67.0738 58.2768 60.2567 55.8959 58.2365 55.2748L58.0561 55.2201C52.8722 53.6696 45.1425 51.9066 33.3326 54.1636C20.9638 56.5275 11.411 51.0785 10.3846 50.4981C9.44625 49.9675 0.000762855 45.674 4.64024e-08 33.4935C-0.000729186 21.3993 8.59377 12.5096 19.9565 9.66027C25.6462 8.23352 31.7409 8.75233 37.4313 9.12197C43.2086 9.49725 48.5487 9.71639 53.1023 7.93107C62.5476 4.22778 66.7308 1.59566 75.0294 0.469496ZM99.8494 5.04832C91.5 2.22024 83.2732 1.35782 75.2952 2.44048C67.3099 3.52414 63.5435 5.9728 53.8239 9.78362C48.795 11.7553 43.0095 11.4773 37.3032 11.1067C31.51 10.7303 25.7627 10.2543 20.4374 11.5896C9.76998 14.2646 1.98205 22.4922 1.98272 33.4933C1.98338 44.4078 10.3422 48.1909 11.3581 48.7654C12.2861 49.2901 21.3108 54.4365 32.9616 52.2098C45.1715 49.8763 53.2344 51.7024 58.6227 53.314L58.8162 53.3728C60.982 54.0383 68.2086 56.56 74.0971 63.2651L74.8952 64.1778C78.7093 68.5538 79.9898 70.2259 84.1317 73.3673C86.2098 74.9435 91.0814 76.9746 96.9656 77.7211C102.824 78.4643 109.521 77.9117 115.298 74.517C126.906 67.6955 130.017 55.2191 130.017 45.0992C130.017 35.0755 125.486 24.8104 120.683 19.3493C115.813 13.8125 108.13 7.85323 99.8494 5.04832Z" fill="url(#paint0_linear_578_1446)"/>
<path d="M36.3217 20.5066C40.4582 20.4148 44.6088 20.3227 48.7098 20.7537C55.8928 21.5084 59.5803 27.4861 62.9442 32.9394C63.0776 33.1555 63.2104 33.371 63.3429 33.5851C63.6503 34.0819 63.9593 34.588 64.2717 35.0996C66.889 39.387 69.7425 44.0613 73.8507 46.8507C75.2489 47.7998 77.6239 49.3739 79.3881 49.3739C80.4542 49.3709 81.4467 49.3559 82.4601 48.974C83.4671 48.5943 84.3928 47.9771 85.2758 47.3885C85.4035 47.3034 85.5304 47.2189 85.6564 47.1358C87.4485 45.9534 89.0945 44.5507 90.6379 43.0613C95.2106 38.6508 98.9797 33.4158 102.27 27.9984C103.31 26.2857 104.302 24.543 105.251 22.7784C105.723 21.8982 106.633 21.366 107.63 21.3659H111.332C112.829 21.3659 114.043 22.5821 114.043 24.0825V75.2186C112.503 76.0389 111.402 76.4058 109.894 76.8478V28.1361C109.894 27.8842 109.897 27.6321 109.899 27.3799C109.904 26.8875 109.909 26.3947 109.895 25.9029C109.89 25.7304 109.872 25.5071 109.709 25.4074C109.603 25.3436 109.485 25.2988 109.363 25.2749C108.94 25.1912 108.306 25.2659 107.928 25.4922C107.53 25.7305 107.217 26.1363 106.919 26.5244L106.904 26.5436C106.798 26.6813 106.694 26.8166 106.588 26.9407C104.79 29.0443 103.07 31.2146 101.38 33.4068C99.114 36.3488 96.9022 39.3327 94.7053 42.3265C91.7487 46.3521 88.8209 50.3988 85.8961 54.4474C85.8722 54.4798 85.8483 54.512 85.8244 54.5441L85.7831 54.5998C85.773 54.6134 85.7631 54.6271 85.753 54.6408C84.848 55.8441 83.8674 57.0155 82.8013 58.0782C81.6318 59.2446 79.9977 60.104 78.3985 59.0083C77.8718 58.6468 77.4211 58.1448 76.9945 57.6697L76.9407 57.6097C76.1014 56.6745 75.3116 55.6806 74.5856 54.6548C73.2308 52.7403 71.8854 50.8187 70.5406 48.8981L70.5328 48.8871C70.5238 48.8741 70.5148 48.8612 70.5057 48.8482C70.4989 48.8385 70.4921 48.8288 70.4853 48.8191L70.4818 48.8143C70.0756 48.2341 69.6687 47.6528 69.2622 47.073C66.9013 43.7053 64.5343 40.3386 62.0062 37.0946C61.3506 36.2532 60.7097 35.3934 60.0674 34.5316C58.3138 32.1788 56.549 29.8109 54.4411 27.7612C49.8555 23.2979 43.8617 21.6829 37.5984 21.7427C33.7119 21.7796 30.3594 21.8822 26.7395 22.8811C23.8107 23.6887 20.8778 24.9429 18.6094 27.0176C16.5498 28.9008 15.245 31.4559 15.245 34.2802C15.245 40.3077 19.8446 42.6555 32.7453 45.1598C40.9018 46.7483 46.1784 48.7389 49.5616 50.9932C49.7299 51.1053 49.8937 51.2181 50.0527 51.3316C50.1244 51.3827 50.1952 51.434 50.2651 51.4854C50.3195 51.5254 50.3734 51.5655 50.4266 51.6056C50.4774 51.6439 50.5276 51.6824 50.5774 51.7209C50.6047 51.7419 50.632 51.763 50.659 51.7841L50.6611 51.7856C50.7027 51.8181 50.7439 51.8508 50.7848 51.8834C50.8605 51.9437 50.9347 52.0046 51.0079 52.0653C51.0282 52.0821 51.0485 52.099 51.0686 52.1158C51.1176 52.1568 51.1659 52.1979 51.2138 52.239C51.21 52.2358 51.2062 52.2326 51.2024 52.2293C51.3709 52.3737 51.5329 52.5189 51.6886 52.665C51.7122 52.6871 51.7357 52.7091 51.759 52.7313C51.8046 52.7747 51.8496 52.8183 51.8941 52.8619C51.9278 52.8948 51.9611 52.9279 51.9941 52.9609C52.0273 52.994 52.0603 53.027 52.0929 53.0602C53.8905 54.8953 54.7498 56.8602 55.1139 58.894C55.174 59.2298 55.2206 59.5676 55.2556 59.907C55.3189 60.518 55.3453 61.1342 55.3453 61.7539C55.3453 69.8161 47.8447 76.7818 31.6455 76.7818C15.3686 76.7818 8.69455 69.8751 6.79484 62.9902C6.57604 62.1967 7.31892 61.4409 8.35631 61.4409H10.8147C11.5397 61.441 12.1533 61.8347 12.3463 62.383C14.7001 69.0904 20.8511 75.8626 31.8453 75.8626C44.6445 75.8626 49.5463 68.0148 49.5463 62.067C49.5463 61.6193 49.5314 61.1669 49.4979 60.7117C49.4496 60.0556 49.3626 59.3937 49.2259 58.7317C48.8278 56.8026 48.0078 54.8727 46.4926 53.0824C46.0241 52.5289 45.489 51.9887 44.8795 51.466C44.7924 51.3913 44.7037 51.317 44.6136 51.2431C44.4855 51.138 44.3544 51.0337 44.2201 50.9301C43.2795 50.2054 42.1828 49.5187 40.9068 48.8823C39.9087 48.3845 38.8009 47.9174 37.5723 47.4867C35.7582 46.8506 33.6808 46.2938 31.3043 45.8347C29.9101 45.5619 28.5844 45.3103 27.327 45.0716C15.2358 42.7755 9.44405 41.6756 9.44405 34.5154C9.44409 27.3136 16.1461 20.5832 31.1451 20.5832C32.8651 20.5832 34.5922 20.5449 36.3217 20.5066Z" fill="#0F002B"/>
<defs>
<linearGradient id="paint0_linear_578_1446" x1="64.142" y1="-2.78578" x2="64.142" y2="79.4444" gradientUnits="userSpaceOnUse">
<stop stop-color="#784AD4"/>
<stop offset="0.5" stop-color="#45A6E4"/>
<stop offset="1" stop-color="#784AD4"/>
</linearGradient>
</defs>
</svg>
